<svg width="1178" height="824" viewBox="0 0 1178 824" fill="none" xmlns="http://www.w3.org/2000/svg">
<path d="M725 752L773 777H940" stroke="#FDC781" stroke-width="0.5"/>
<path d="M453 752L405 777H238" stroke="#FDC781" stroke-width="0.5"/>
<path d="M246.5 541L189 546.271H22" stroke="#FDC781" stroke-width="0.5"/>
<path d="M224.5 411.271L167 411.271H0" stroke="#FDC781" stroke-width="0.5"/>
<path d="M589 46V1" stroke="#FDC781" stroke-width="0.5"/>
<path d="M589 779V824" stroke="#FDC781" stroke-width="0.5"/>
<path d="M756 85L804 60H971" stroke="#FDC781" stroke-width="0.5"/>
<path d="M425 85L377 60H210" stroke="#FDC781" stroke-width="0.5"/>
<path d="M870.5 177.5L927 163H1094" stroke="#FDC781" stroke-width="0.5"/>
<path d="M308.5 173.5L252 159H85" stroke="#FDC781" stroke-width="0.5"/>
<path d="M855 659L911.5 673.5H1078.5" stroke="#FDC781" stroke-width="0.5"/>
<path d="M321.5 659L265 673.5H98" stroke="#FDC781" stroke-width="0.5"/>
<path d="M931 286.271L988.5 281H1155.5" stroke="#FDC781" stroke-width="0.5"/>
<path d="M246.5 286.271L189 281H22" stroke="#FDC781" stroke-width="0.5"/>
<path d="M931 541L988.5 546.271H1155.5" stroke="#FDC781" stroke-width="0.5"/>
<line x1="482" y1="0.5" x2="695" y2="0.5" stroke="#FDC781"/>
<line x1="505" y1="823.5" x2="673" y2="823.5" stroke="#FDC781"/>
<path d="M953 411.271L1010.5 411.271H1177.5" stroke="#FDC781" stroke-width="0.5"/>
<circle cx="589" cy="411" r="364.5" stroke="#FDC781"/>
</svg>
