<svg width="120" height="112" viewBox="0 0 120 112" fill="none" xmlns="http://www.w3.org/2000/svg">
<path d="M41.2691 89.0631C37.7236 83.5713 35.7718 76.4344 35.7718 68.968V62.7005V62.4864L35.7734 62.4521V12.6308V6.54089H8.01112C7.91298 7.4631 7.86035 8.40055 7.86035 9.34836V68.3585C7.86035 82.9519 19.7673 94.7815 34.4549 94.7815H46.2713C44.4078 93.2187 42.717 91.3057 41.2691 89.0631Z" fill="white" fill-opacity="0.17"/>
<path d="M109.638 6.54089H82.1234V12.6308L82.1239 62.6667V68.9342C82.1239 79.9266 77.9413 89.3888 71.5186 94.7815H84.8399C99.5276 94.7815 109.789 82.9519 109.789 68.3585V9.34836C109.79 8.40055 109.737 7.4631 109.638 6.54089Z" fill="white" fill-opacity="0.17"/>
<path d="M72.8037 62.6668V12.6309H63.9132H62.8398H54.9011H54.2498H45.0934V62.6668L45.0918 62.7011V68.9686C45.0918 80.7726 51.2163 90.3073 58.8973 90.3073C66.5783 90.3073 72.8042 80.7388 72.8042 68.9348L72.8037 62.6668Z" fill="white" fill-opacity="0.17"/>
<path d="M72.8037 12.6309V62.6668L72.8042 68.9343C72.8042 80.7383 66.5783 90.3067 58.8973 90.3067C51.2163 90.3067 45.0918 80.772 45.0918 68.968V62.7005L45.0934 62.6662V12.6309H54.2498H54.9011H62.8398H63.9132H72.8037Z" fill="white" fill-opacity="0.17"/>
<path d="M58.5507 59.4857C62.8697 59.4857 66.371 56.007 66.371 51.7159C66.371 47.4247 62.8697 43.946 58.5507 43.946C54.2317 43.946 50.7305 47.4247 50.7305 51.7159C50.7305 56.007 54.2317 59.4857 58.5507 59.4857Z" fill="url(#paint0_radial_441_140)"/>
<path d="M58.552 56.4324C61.1739 56.4324 63.2993 54.3207 63.2993 51.7157C63.2993 49.1108 61.1739 46.999 58.552 46.999C55.9301 46.999 53.8047 49.1108 53.8047 51.7157C53.8047 54.3207 55.9301 56.4324 58.552 56.4324Z" fill="url(#paint1_radial_441_140)"/>
<path d="M58.5512 42.2987C60.2126 42.2987 61.5595 40.9606 61.5595 39.3099C61.5595 37.6592 60.2126 36.321 58.5512 36.321C56.8898 36.321 55.543 37.6592 55.543 39.3099C55.543 40.9606 56.8898 42.2987 58.5512 42.2987Z" fill="url(#paint2_radial_441_140)"/>
<path d="M58.7589 24.9665C61.2593 24.9665 63.2864 22.9525 63.2864 20.4682C63.2864 17.9839 61.2593 15.97 58.7589 15.97C56.2585 15.97 54.2314 17.9839 54.2314 20.4682C54.2314 22.9525 56.2585 24.9665 58.7589 24.9665Z" fill="url(#paint3_radial_441_140)"/>
<path d="M58.7578 23.1869C60.269 23.1869 61.4941 21.9697 61.4941 20.4682C61.4941 18.9667 60.269 17.7495 58.7578 17.7495C57.2466 17.7495 56.0215 18.9667 56.0215 20.4682C56.0215 21.9697 57.2466 23.1869 58.7578 23.1869Z" fill="url(#paint4_radial_441_140)"/>
<path d="M58.5517 35.0824C61.0191 35.0824 63.0194 33.095 63.0194 30.6435C63.0194 28.1919 61.0191 26.2046 58.5517 26.2046C56.0842 26.2046 54.084 28.1919 54.084 30.6435C54.084 33.095 56.0842 35.0824 58.5517 35.0824Z" fill="url(#paint5_radial_441_140)"/>
<path d="M58.5514 70.1294C61.0522 70.1294 63.0794 68.1153 63.0794 65.6306C63.0794 63.146 61.0522 61.1318 58.5514 61.1318C56.0507 61.1318 54.0234 63.146 54.0234 65.6306C54.0234 68.1153 56.0507 70.1294 58.5514 70.1294Z" fill="url(#paint6_radial_441_140)"/>
<path d="M58.551 78.4346C60.2505 78.4346 61.6283 77.0657 61.6283 75.3771C61.6283 73.6885 60.2505 72.3196 58.551 72.3196C56.8514 72.3196 55.4736 73.6885 55.4736 75.3771C55.4736 77.0657 56.8514 78.4346 58.551 78.4346Z" fill="url(#paint7_radial_441_140)"/>
<path d="M58.5509 84.9924C59.7645 84.9924 60.7483 84.015 60.7483 82.8092C60.7483 81.6034 59.7645 80.626 58.5509 80.626C57.3373 80.626 56.3535 81.6034 56.3535 82.8092C56.3535 84.015 57.3373 84.9924 58.5509 84.9924Z" fill="url(#paint8_radial_441_140)"/>
<defs>
<radialGradient id="paint0_radial_441_140" cx="0" cy="0" r="1" gradientUnits="userSpaceOnUse" gradientTransform="translate(58.5507 51.7161) scale(7.82008 7.76966)">
<stop stop-color="white"/>
<stop offset="0.1652" stop-color="#FCFCFC"/>
<stop offset="0.296" stop-color="#F2F2F2"/>
<stop offset="0.415" stop-color="#E1E1E1"/>
<stop offset="0.5271" stop-color="#CACACA"/>
<stop offset="0.6343" stop-color="#ABABAB"/>
<stop offset="0.7378" stop-color="#868686"/>
<stop offset="0.8384" stop-color="#595959"/>
<stop offset="0.9343" stop-color="#272727"/>
<stop offset="1"/>
</radialGradient>
<radialGradient id="paint1_radial_441_140" cx="0" cy="0" r="1" gradientUnits="userSpaceOnUse" gradientTransform="translate(58.5519 51.7154) scale(4.74741 4.7168)">
<stop offset="0.3441" stop-color="white"/>
<stop offset="0.4444" stop-color="#FEF0DA"/>
<stop offset="0.6397" stop-color="#FDD599"/>
<stop offset="0.8041" stop-color="#FCC169"/>
<stop offset="0.9291" stop-color="#FBB54B"/>
<stop offset="1" stop-color="#FBB040"/>
</radialGradient>
<radialGradient id="paint2_radial_441_140" cx="0" cy="0" r="1" gradientUnits="userSpaceOnUse" gradientTransform="translate(58.5512 39.3104) scale(3.00842 2.98902)">
<stop stop-color="white"/>
<stop offset="0.5411" stop-color="#565656"/>
<stop offset="0.8333"/>
</radialGradient>
<radialGradient id="paint3_radial_441_140" cx="0" cy="0" r="1" gradientUnits="userSpaceOnUse" gradientTransform="translate(58.7588 20.4683) scale(4.52734 4.49815)">
<stop stop-color="white"/>
<stop offset="0.0849" stop-color="#F6F6F6"/>
<stop offset="0.2245" stop-color="#DDDDDD"/>
<stop offset="0.4014" stop-color="#B5B5B5"/>
<stop offset="0.6087" stop-color="#7D7D7D"/>
<stop offset="0.8388" stop-color="#363636"/>
<stop offset="1"/>
</radialGradient>
<radialGradient id="paint4_radial_441_140" cx="0" cy="0" r="1" gradientUnits="userSpaceOnUse" gradientTransform="translate(58.7577 20.4683) scale(2.73615 2.71851)">
<stop offset="0.4247" stop-color="white"/>
<stop offset="0.4852" stop-color="#FFFCF7"/>
<stop offset="0.5789" stop-color="#FEF3E1"/>
<stop offset="0.694" stop-color="#FEE4BE"/>
<stop offset="0.826" stop-color="#FDCF8C"/>
<stop offset="0.9707" stop-color="#FBB64E"/>
<stop offset="1" stop-color="#FBB040"/>
</radialGradient>
<radialGradient id="paint5_radial_441_140" cx="0" cy="0" r="1" gradientUnits="userSpaceOnUse" gradientTransform="translate(58.5516 30.6439) scale(4.46791 4.4391)">
<stop stop-color="white"/>
<stop offset="0.2442" stop-color="#A0A0A0"/>
<stop offset="0.4833" stop-color="#4A4A4A"/>
<stop offset="0.6502" stop-color="#151515"/>
<stop offset="0.7312"/>
</radialGradient>
<radialGradient id="paint6_radial_441_140" cx="0" cy="0" r="1" gradientUnits="userSpaceOnUse" gradientTransform="translate(58.5514 65.6308) scale(4.52762 4.49842)">
<stop stop-color="white"/>
<stop offset="0.0641" stop-color="#F7F7F7"/>
<stop offset="0.1657" stop-color="#E0E0E0"/>
<stop offset="0.2921" stop-color="#BABABA"/>
<stop offset="0.4383" stop-color="#878787"/>
<stop offset="0.5991" stop-color="#454545"/>
<stop offset="0.7527"/>
</radialGradient>
<radialGradient id="paint7_radial_441_140" cx="0" cy="0" r="1" gradientUnits="userSpaceOnUse" gradientTransform="translate(58.5509 75.377) scale(3.07749 3.05765)">
<stop stop-color="white"/>
<stop offset="0.3746" stop-color="#8E8E8E"/>
<stop offset="0.7297" stop-color="#282828"/>
<stop offset="0.8871"/>
</radialGradient>
<radialGradient id="paint8_radial_441_140" cx="0" cy="0" r="1" gradientUnits="userSpaceOnUse" gradientTransform="translate(58.5508 82.8089) scale(2.197 2.18284)">
<stop stop-color="white"/>
<stop offset="0.157" stop-color="#CECECE"/>
<stop offset="0.8333"/>
</radialGradient>
</defs>
</svg>
