<svg width="606" height="605" viewBox="0 0 606 605" fill="none" xmlns="http://www.w3.org/2000/svg">
<path fill-rule="evenodd" clip-rule="evenodd" d="M247.041 1.19113L246.995 0.641235L246.452 0.741794C244.006 1.19506 241.56 1.65996 239.13 2.17605L238.59 2.29083L238.758 2.81713C247.138 29.0806 235.011 57.6625 210.171 69.8914L209.751 70.0984L209.93 70.5314L252.763 173.858L252.95 174.308L253.404 174.133C267.684 168.651 283.102 165.487 299.212 165.072L299.699 165.06V164.572V52.7136V52.2444L299.231 52.2146C271.561 50.4542 249.375 28.6797 247.041 1.19113ZM211.033 70.5798C235.868 58.1013 248.032 29.4819 239.876 3.04083C241.938 2.60959 244.013 2.21271 246.094 1.82533C248.702 29.3929 270.938 51.1879 298.699 53.1809V164.086C282.821 164.55 267.613 167.665 253.501 173.026L211.033 70.5798ZM359.201 0.74177L358.658 0.641369L358.612 1.1912C356.282 28.6796 334.092 50.4506 306.422 52.2146L305.954 52.2444V52.7136V164.576V165.063L306.441 165.076C322.554 165.491 337.973 168.655 352.252 174.137L352.707 174.311L352.893 173.861L395.734 70.5242L395.913 70.0912L395.493 69.8841C370.649 57.6552 358.519 29.0732 366.899 2.81717L367.067 2.28993L366.526 2.17587C364.093 1.66361 361.651 1.1952 359.201 0.74177ZM306.954 53.1808C334.715 51.1844 356.955 29.393 359.559 1.82527C361.642 2.21297 363.716 2.61241 365.78 3.04161C357.624 29.4754 369.793 58.0943 394.631 70.5725L352.156 173.029C338.043 167.669 322.835 164.553 306.954 164.089V53.1808ZM135.701 45.5098L135.447 45.019L134.984 45.321C132.902 46.6786 130.838 48.0583 128.792 49.4673L128.338 49.78L128.694 50.2015C146.443 71.2418 146.192 102.223 127.989 123.013L127.68 123.365L128.011 123.696L207.224 202.846L207.568 203.19L207.921 202.855C219.217 192.143 232.315 183.328 246.729 176.903L247.174 176.705L246.987 176.255L204.154 72.9321L203.974 72.4983L203.53 72.6506C177.281 81.6535 148.399 70.0312 135.701 45.5098ZM129.048 123.318C147.151 102.3 147.423 71.269 129.812 49.9801C131.551 48.7876 133.304 47.6155 135.07 46.4595C148.052 70.9481 176.986 82.5699 203.41 73.7472L245.877 176.189C231.684 182.575 218.766 191.267 207.587 201.796L129.048 123.318ZM470.207 45.0155L470.67 45.3174C472.752 46.6752 474.819 48.0585 476.865 49.4673L477.319 49.7801L476.964 50.2016C459.215 71.2382 459.469 102.22 477.676 123.006L477.985 123.358L477.653 123.689L398.43 202.846L398.085 203.191L397.732 202.855C386.441 192.144 373.339 183.328 358.925 176.903L358.48 176.705L358.667 176.255L401.503 72.9213L401.683 72.4874L402.127 72.6399C428.381 81.6463 457.251 70.0277 469.953 45.5063L470.207 45.0155ZM470.584 46.4559C457.598 70.9445 428.675 82.5628 402.248 73.7364L359.776 176.189C373.97 182.575 386.891 191.267 398.067 201.796L476.617 123.311C458.51 102.297 458.235 71.2656 475.846 49.9801C474.106 48.7871 472.351 47.6124 470.584 46.4559ZM482.742 128.093L482.39 127.781L482.058 128.114L402.852 207.264L402.507 207.609L402.843 207.962C413.567 219.248 422.386 232.337 428.812 246.739L429.01 247.183L429.46 246.997L533.009 204.14L533.441 203.961L533.292 203.518C524.469 177.387 536.075 148.715 560.483 136.059L560.973 135.805L560.671 135.342C559.317 133.267 557.947 131.204 556.54 129.162L556.228 128.71L555.806 129.063C534.659 146.831 503.531 146.49 482.742 128.093ZM403.903 207.628L482.433 129.152C503.452 147.45 534.63 147.811 556.026 130.181C557.215 131.915 558.38 133.666 559.533 135.428C535.159 148.366 523.553 177.09 532.196 203.394L429.526 245.887C423.138 231.705 414.443 218.798 403.903 207.628ZM535.822 209.742L536.028 210.165C548.162 235.118 576.774 247.361 603.109 239.067L603.635 238.901L603.749 239.44C604.258 241.854 604.712 244.284 605.162 246.712L605.262 247.253L604.714 247.302C577.372 249.705 555.728 271.727 553.863 299.202L553.831 299.668H553.364H441.152H440.665L440.652 299.181C440.237 283.08 437.074 267.677 431.591 253.409L431.417 252.954L431.867 252.768L535.387 209.922L535.822 209.742ZM432.699 253.506C438.06 267.607 441.174 282.799 441.638 298.668H552.898C554.995 271.102 576.66 249.031 604.079 246.356C603.695 244.289 603.307 242.23 602.882 240.184C576.371 248.255 547.722 235.974 535.336 211.025L432.699 253.506ZM398.43 402.739L398.085 402.395L397.732 402.73C386.437 413.442 373.335 422.254 358.925 428.679L358.48 428.877L358.667 429.327L401.674 533.077L401.853 533.51L402.296 533.359C428.374 524.507 457.021 535.964 469.784 560.187L470.04 560.673L470.499 560.373C472.548 559.038 474.586 557.683 476.6 556.299L477.052 555.989L476.701 555.568C459.135 534.441 459.563 503.496 477.895 482.806L478.208 482.454L477.875 482.121L398.43 402.739ZM402.419 532.263L359.776 429.393C373.967 423.006 386.887 414.318 398.067 403.79L476.836 482.497C458.603 503.415 458.156 534.41 475.584 555.784C473.875 556.952 472.147 558.101 470.411 559.237C457.367 535.047 428.667 523.59 402.419 532.263ZM252.953 431.274L253.407 431.448C267.687 436.927 283.102 440.087 299.212 440.506L299.699 440.518V441.006V553.357V553.827L299.23 553.856C271.719 555.602 249.608 577.133 247.066 604.398L247.015 604.943L246.477 604.843C244.075 604.397 241.676 603.943 239.286 603.438L238.749 603.325L238.912 602.801C247.03 576.603 234.813 548.214 210.012 536.089L209.59 535.883L209.77 535.449L252.766 431.724L252.953 431.274ZM253.504 432.556L210.873 535.399C235.668 547.773 247.922 576.198 240.027 602.572C242.05 602.993 244.083 603.38 246.124 603.76C248.937 576.418 271.097 554.867 298.699 552.89V441.492C282.821 441.025 267.617 437.913 253.504 432.556ZM207.925 402.73L207.572 402.395L207.227 402.739L127.79 482.114L127.457 482.447L127.769 482.799C146.098 503.492 146.522 534.441 128.952 555.56L128.602 555.982L129.053 556.292C131.071 557.68 133.106 559.03 135.154 560.366L135.614 560.665L135.869 560.18C148.629 535.957 177.28 524.493 203.361 533.345L203.804 533.495L203.983 533.063L246.987 429.323L247.173 428.873L246.728 428.675C232.318 422.254 219.22 413.442 207.925 402.73ZM128.828 482.49L207.59 403.79C218.77 414.318 231.687 423.006 245.877 429.389L203.238 532.249C176.986 523.576 148.283 535.039 135.243 559.229C133.506 558.094 131.781 556.948 130.07 555.777C147.501 534.41 147.057 503.411 128.828 482.49ZM164.992 305.917L165.005 306.404C165.42 322.502 168.587 337.904 174.073 352.169L174.248 352.624L173.797 352.81L70.0958 395.733L69.6643 395.911L69.4567 395.493C57.2219 370.838 28.8184 358.76 2.64868 366.95L2.12416 367.115L2.0102 366.577C1.50114 364.175 1.03598 361.76 0.582311 359.342L0.480825 358.8L1.02917 358.751C28.4859 356.294 50.1767 334.049 51.8269 306.391L51.8549 305.921H52.326L164.505 305.917L164.992 305.917ZM52.7951 306.921C50.9116 334.672 29.2001 356.965 1.66638 359.696C2.05354 361.751 2.44991 363.798 2.87576 365.834C29.2199 357.866 57.6604 369.98 70.1432 394.631L172.965 352.072C167.601 337.974 164.483 322.782 164.019 306.917L52.7951 306.921ZM352.886 431.724L352.7 431.274L352.245 431.448C337.969 436.927 322.551 440.09 306.441 440.506L305.954 440.518V441.006V553.357V553.827L306.422 553.856C333.93 555.602 356.045 577.133 358.586 604.398L358.637 604.943L359.176 604.843C361.578 604.397 363.977 603.943 366.366 603.438L366.903 603.325L366.741 602.801C358.623 576.606 370.839 548.218 395.644 536.1L396.066 535.894L395.886 535.46L352.886 431.724ZM306.954 552.89V441.492C322.832 441.028 338.039 437.913 352.149 432.556L394.783 535.41C369.984 547.776 357.73 576.201 365.625 602.572C363.602 602.993 361.57 603.38 359.529 603.76C356.715 576.418 334.552 554.867 306.954 552.89ZM176.646 358.402L176.845 358.846C183.271 373.249 192.093 386.337 202.814 397.619L203.15 397.973L202.805 398.317L123.353 477.703L123.022 478.034L122.67 477.726C101.946 459.612 71.098 459.282 50.0518 476.802L49.631 477.153L49.3203 476.702C47.9283 474.683 46.5659 472.646 45.2222 470.599L44.9195 470.138L45.4079 469.882C69.7833 457.097 81.2741 428.289 72.2284 402.132L72.0744 401.687L72.5097 401.507L176.197 358.588L176.646 358.402ZM73.3257 402.251C82.1912 428.582 70.7005 457.442 46.3597 470.509C47.5025 472.245 48.6586 473.972 49.8347 475.685C71.1274 458.302 102.024 458.653 122.975 476.667L201.754 397.954C191.217 386.787 182.519 373.88 176.13 359.698L73.3257 402.251ZM429.01 358.398L429.46 358.584L533.158 401.503L533.593 401.684L533.439 402.129C524.382 428.289 535.87 457.094 560.241 469.879L560.728 470.134L560.428 470.595C559.087 472.65 557.72 474.68 556.329 476.702L556.019 477.153L555.597 476.802C534.551 459.283 503.707 459.62 482.99 477.737L482.638 478.045L482.308 477.714L402.848 398.317L402.503 397.973L402.839 397.619C413.56 386.333 422.386 373.245 428.812 358.843L429.01 358.398ZM429.526 359.694C423.138 373.877 414.436 386.784 403.899 397.954L482.685 476.678C503.628 458.66 534.522 458.303 555.814 475.685C556.992 473.968 558.151 472.246 559.291 470.506C534.953 457.439 523.465 428.582 532.342 402.248L429.526 359.694ZM553.838 306.384L553.81 305.914L553.339 305.914L441.152 305.917H440.665L440.653 306.404C440.237 322.502 437.071 337.908 431.585 352.176L431.41 352.631L431.86 352.817L535.573 395.74L536.004 395.918L536.212 395.5C548.443 370.838 576.846 358.76 603.012 366.954L603.537 367.118L603.651 366.58C604.16 364.175 604.625 361.76 605.079 359.342L605.18 358.801L604.632 358.751C577.172 356.287 555.484 334.049 553.838 306.384ZM432.692 352.079C438.057 337.978 441.175 322.783 441.639 306.917L552.87 306.914C554.749 334.672 576.458 356.958 603.995 359.696C603.608 361.751 603.211 363.799 602.785 365.838C576.445 357.866 548.004 369.98 535.525 394.638L432.692 352.079ZM123.267 127.796L123.6 128.129L202.801 207.268L203.146 207.613L202.811 207.966C192.09 219.249 183.271 232.337 176.841 246.739L176.643 247.183L176.194 246.997L72.6552 204.144L72.2233 203.965L72.3727 203.522C81.1883 177.387 69.5789 148.719 45.1746 136.063L44.6841 135.809L44.9861 135.346C46.3407 133.27 47.7105 131.211 49.1135 129.17L49.4255 128.716L49.8472 129.071C70.9908 146.839 102.127 146.498 122.915 128.108L123.267 127.796ZM49.6276 130.189C48.4413 131.923 47.2773 133.671 46.1244 135.432C70.4947 148.37 82.1043 177.09 73.4679 203.398L176.127 245.888C182.519 231.705 191.214 218.798 201.75 207.631L123.224 129.167C102.205 147.457 71.0204 147.818 49.6276 130.189ZM70.2803 209.929L69.8455 209.749L69.6395 210.172C57.4981 235.118 28.8826 247.361 2.54736 239.07L2.02099 238.904L1.90784 239.445C1.40234 241.857 0.9444 244.283 0.498038 246.706L0.398438 247.246L0.945913 247.294C28.2876 249.701 49.9317 271.727 51.8048 299.198L51.8366 299.664H52.3037H164.508H164.995L165.008 299.177C165.424 283.08 168.59 267.677 174.072 253.413L174.247 252.958L173.797 252.772L70.2803 209.929ZM2.77475 240.187C29.2861 248.254 57.9386 235.974 70.3309 211.032L172.965 253.509C167.604 267.607 164.486 282.799 164.022 298.664H52.7689C50.6646 271.102 28.9994 249.028 1.58079 246.349C1.96191 244.289 2.35238 242.233 2.77475 240.187Z" fill="url(#paint0_radial_441_38)"/>
<defs>
<radialGradient id="paint0_radial_441_38" cx="0" cy="0" r="1" gradientUnits="userSpaceOnUse" gradientTransform="translate(302.83 302.792) rotate(89.9835) scale(588.708 589.255)">
<stop stop-color="#123F4E" stop-opacity="0"/>
<stop offset="0.375478" stop-color="#289CD9"/>
</radialGradient>
</defs>
</svg>
